<mxfile host="app.diagrams.net" modified="2023-08-10T07:14:25.770Z" agent="Mozilla/5.0 (Windows NT 10.0; Win64; x64) AppleWebKit/537.36 (KHTML, like Gecko) Chrome/115.0.0.0 Safari/537.36" version="21.6.7" etag="iEWaeSP_ED3Yk04tbCH6" type="github">
  <diagram name="第 1 页" id="Fyp3r1S8YzBOv9O5g39B">
    <mxGraphModel>
      <root>
        <mxCell id="0" />
        <mxCell id="1" parent="0" />
      </root>
    </mxGraphModel>
  </diagram>
</mxfile>
